<svg width="26" height="23" viewBox="0 0 26 23" fill="none" xmlns="http://www.w3.org/2000/svg">
<path d="M9.54688 0.4375C8.09345 0.4375 6.90625 1.6247 6.90625 3.07812C6.90625 4.53155 8.09345 5.71875 9.54688 5.71875C10.9407 5.71875 12.0615 4.61777 12.1534 3.24634C12.1766 3.19334 12.1882 3.13599 12.1875 3.07812C12.188 3.0208 12.1764 2.96401 12.1534 2.9115C12.0623 1.53932 10.9413 0.4375 9.54688 0.4375ZM16.4531 0.4375C14.9997 0.4375 13.8125 1.6247 13.8125 3.07812C13.8125 4.53155 14.9997 5.71875 16.4531 5.71875C17.847 5.71875 18.9678 4.61777 19.0596 3.24634C19.0829 3.19334 19.0945 3.13599 19.0938 3.07812C19.0943 3.0208 19.0826 2.96401 19.0596 2.9115C18.9686 1.53932 17.8475 0.4375 16.4531 0.4375ZM9.54688 1.25C10.561 1.25 11.375 2.06399 11.375 3.07812C11.375 4.09226 10.561 4.90625 9.54688 4.90625C8.53274 4.90625 7.71875 4.09226 7.71875 3.07812C7.71875 2.06399 8.53274 1.25 9.54688 1.25ZM16.4531 1.25C17.4673 1.25 18.2812 2.06399 18.2812 3.07812C18.2812 4.09226 17.4673 4.90625 16.4531 4.90625C15.439 4.90625 14.625 4.09226 14.625 3.07812C14.625 2.06399 15.439 1.25 16.4531 1.25ZM4.875 5.71875C3.30944 5.71875 2.03125 6.99693 2.03125 8.5625C2.03125 10.1281 3.30944 11.4062 4.875 11.4062C6.38096 11.4062 7.59239 10.2142 7.68463 8.73071C7.70785 8.67771 7.71949 8.62036 7.71875 8.5625C7.71937 8.50491 7.70774 8.44784 7.68463 8.39508C7.59279 6.91117 6.38123 5.71875 4.875 5.71875ZM21.125 5.71875C19.5594 5.71875 18.2812 6.99693 18.2812 8.5625C18.2812 10.1281 19.5594 11.4062 21.125 11.4062C22.631 11.4062 23.8424 10.2142 23.9346 8.73071C23.9579 8.67771 23.9695 8.62036 23.9688 8.5625C23.9694 8.50491 23.9577 8.44784 23.9346 8.39508C23.8428 6.91117 22.6312 5.71875 21.125 5.71875ZM4.875 6.53125C6.00125 6.53125 6.90625 7.43625 6.90625 8.5625C6.90625 9.68875 6.00125 10.5938 4.875 10.5938C3.74875 10.5938 2.84375 9.68875 2.84375 8.5625C2.84375 7.43625 3.74875 6.53125 4.875 6.53125ZM21.125 6.53125C22.2512 6.53125 23.1562 7.43625 23.1562 8.5625C23.1562 9.68875 22.2512 10.5938 21.125 10.5938C19.9988 10.5938 19.0938 9.68875 19.0938 8.5625C19.0938 7.43625 19.9988 6.53125 21.125 6.53125ZM13 8.5625C11.2102 8.5625 9.75 10.0227 9.75 11.8125C9.75 13.6023 11.2102 15.0625 13 15.0625C14.7303 15.0625 16.1231 13.6885 16.2159 11.9807C16.2391 11.9277 16.2507 11.8704 16.25 11.8125C16.2505 11.7552 16.2389 11.6984 16.2159 11.6459C16.1239 9.93731 14.7308 8.5625 13 8.5625ZM13 9.375C14.3505 9.375 15.4375 10.462 15.4375 11.8125C15.4375 13.163 14.3505 14.25 13 14.25C11.6495 14.25 10.5625 13.163 10.5625 11.8125C10.5625 10.462 11.6495 9.375 13 9.375ZM4.875 11.8125C1.59597 11.8125 0.434021 14.6832 0.434021 14.6832C0.415674 14.7303 0.406256 14.7803 0.40625 14.8308V15.875C0.406261 15.9827 0.449065 16.0861 0.52525 16.1623C0.601434 16.2384 0.704759 16.2812 0.8125 16.2812H8.9375C9.04524 16.2812 9.14857 16.2384 9.22475 16.1623C9.30093 16.0861 9.34374 15.9827 9.34375 15.875V14.8308C9.34374 14.7803 9.33433 14.7303 9.31598 14.6832C9.31598 14.6832 8.15403 11.8125 4.875 11.8125ZM21.125 11.8125C17.846 11.8125 16.684 14.6832 16.684 14.6832C16.6657 14.7303 16.6563 14.7803 16.6562 14.8308V15.875C16.6563 15.9827 16.6991 16.0861 16.7752 16.1623C16.8514 16.2384 16.9548 16.2812 17.0625 16.2812H25.1875C25.2952 16.2812 25.3986 16.2384 25.4748 16.1623C25.5509 16.0861 25.5937 15.9827 25.5938 15.875V14.8308C25.5937 14.7803 25.5843 14.7303 25.566 14.6832C25.566 14.6832 24.404 11.8125 21.125 11.8125ZM4.875 12.625C7.5817 12.625 8.46557 14.7543 8.53125 14.9213V15.4688H1.21875V14.9213C1.28443 14.7543 2.16831 12.625 4.875 12.625ZM21.125 12.625C23.8317 12.625 24.7156 14.7543 24.7812 14.9213V15.4688H17.4688V14.9213C17.5344 14.7543 18.4183 12.625 21.125 12.625ZM13 15.875C8.63375 15.875 6.93799 19.8201 6.93799 19.8201C6.91698 19.8701 6.90619 19.9237 6.90625 19.978V21.5625C6.90626 21.6702 6.94907 21.7736 7.02525 21.8498C7.10143 21.9259 7.20476 21.9687 7.3125 21.9688H18.6875C18.7952 21.9687 18.8986 21.9259 18.9748 21.8498C19.0509 21.7736 19.0937 21.6702 19.0938 21.5625V19.978C19.0938 19.9237 19.083 19.8701 19.062 19.8201C19.062 19.8201 17.3663 15.875 13 15.875ZM13 16.6875C16.7721 16.6875 18.2026 19.8941 18.2812 20.0764V21.1562H7.71875V20.0764C7.79743 19.8941 9.22793 16.6875 13 16.6875Z" fill="#007A5B" stroke="#007A5B" stroke-width="0.5"/>
</svg>
